<svg xmlns="http://www.w3.org/2000/svg" viewBox="0 0 512 512"><g fill="none" stroke-width="2"><path stroke="#71a485" d="m257.62 0-.5 13.52" vector-effect="non-scaling-stroke"/><path stroke="#f1d087" d="M257.12 13.52c-11.28.59-23.23.91-33.79 2.58-66.67 10.55-125.04 48.94-164 103.57-22.35 31.36-37.25 68.98-41.83 106.31q-2.18 17.72-1.3 44.79" vector-effect="non-scaling-stroke"/><path stroke="#d7960b" d="m16.2 270.77-1.24-4.75a.92.92 0 0 0-1.81.21l-.23 14.5a1.32 1.31-65.5 0 0 .32.86q1.1 1.27.87 3.67-.42 4.49.39 11.07.27 2.16 1.6 5.32 1.43 3.37 2.04 7.04.08.49.4.87 1.14 1.34 1.29 3.08c.23 2.68 1.79 4.69 2.22 7.39q1.06 6.53 3.75 12.56 1.21 2.7 1.7 5.53 1.21 6.98 4.03 13.54c.39.92.42 2.26 1.45 3.29q.34.34.51.8 1.71 4.94 3.52 9.83 1.41 3.78 4.08 8.16 4.28 7.03 7.63 14.55 1.75 3.91 4.05 7.23 4.55 6.55 8.54 13.47c.57.98 1.46 1.77 2.16 2.75q4.15 5.84 8.64 11.41.44.55 1.43 1.2c1.22.81 2.32 2.7 2.95 3.37q15.03 15.79 32.29 29.11l2.78 1.93q1.64 1.14 4.57 3.48 13.94 11.12 33.77 21.59 11.45 6.04 20.32 9.56 2.84 1.12 6.85 2.93 3.38 1.54 6.92 2.75.29.1.51.04.28-.08.44-.29.24-.3.61-.21l19.42 4.6a.1.1 0 0 1 .02.19q-.2.07-.42.18a.25.25 0 0 0 .1.48q5.12.1 10.01 1.59.48.14.97 0 .28-.08.61-.01 4.92 1 9.98 1.35l2.84-.07q2.41-.06 5.28 1.17 3.09 1.33 8.8 1.3.42 0 .05.21-.32.19-.66.1-.31-.08-.62-.04-1.12.14-2 .66-.56.33.02.62 1.35.67 2.67.69a.02.01 49.7 0 0 0-.03q-1.01-.21-1.5.4" vector-effect="non-scaling-stroke"/><path stroke="#019bea" d="m327.21 512 1.18-1.31q.3-.32.72-.45c4.25-1.27 7.89-3.45 12.31-4.42q2.77-.61 5.36-1.76 3.68-1.63 3.78-1.67 5.88-2.4 11.49-5.34.09-.05 3.06-1.11 1.86-.66 2.76-2.49.22-.46.67-.68 10.76-5.39 21.22-13.26 7.92-5.96 19.49-13.77 5.21-3.52 19.07-16.95.05-.05.4-.5.27-.36.82-.43.44-.05.76-.36 6.26-5.98 11.86-12.6.2-.24.46-.29.39-.07.6-.41 1.08-1.71 3.41-3.59c1.13-.91 1.71-2.85 2.69-4q4.26-4.98 7.92-10.42.06-.08-.03-.12l-.22-.11q-.01 0 0-.01 5-6.39 6.39-8.71 8.71-14.54 10.99-19.75 5.3-12.11 10.52-24.24.83-1.92 1.78-7.07.45-2.43 1.78-5.09 1.87-3.73 2.9-7.81a.17.17 0 0 1 .15-.13l.36-.01q.49-.02.55-.5.85-6.56.87-13.18 0-.07-.12-1.43-.16-1.76.9-4.72a.34.34 0 0 0-.32-.45l-.43-.01q-.39 0-.35-.38.14-1.26 1.28-1.44a.62.6 72.3 0 1 .64.34l.29.56a.25.25 0 0 0 .43.03q.76-1.14-.14-2.29-.33-.43-.1-.92 1.24-2.64.94-5.69-.05-.51.27-.92.45-.58.38-1.39-.46-5.1 1.27-9.78.97-2.61 1.05-4.62.5-11.18 1.48-22.32.1-1.19.38-2.37.3-1.29.27-2.35-.18-6.46.24-12.91.02-.23-.21-.3-.14-.04-.24-.16-.12-.14-.09-.41.24-3.11-.27-6.17-.1-.59-.56-.96-1.12-.92-.48-2.56a.53.5 46.8 0 0 0-.39l-.48-1.18q-.15-.37-.22.02l-.26 1.66" vector-effect="non-scaling-stroke"/><path stroke="#80d3fd" d="M498.83 245.95q-.76-23.33-5.84-43.7C477.69 140.89 437 87.09 384.41 52.35q-56.89-37.59-127.29-38.83" vector-effect="non-scaling-stroke"/><path stroke="#81c8ec" d="M498.83 245.95q1.93 36.11-6.29 67.56-11.3 43.24-39.87 81.15-48.51 64.38-125.21 89.97-35.2 11.75-71.57 11.44" vector-effect="non-scaling-stroke"/><path stroke="#e5c583" d="M255.89 496.07q-88.75-1.38-156.31-60.69C51.54 393.22 19.6 334.93 16.2 270.77" vector-effect="non-scaling-stroke"/><path stroke="#8a9caa" d="M184.18 80.12Q162.41 88.9 144.53 104c-3.04 2.57-7.32 2.67-10.62 3.99-21.57 8.64-38.83 27.62-49.87 47.6-22.06 39.89-27.72 86.56-21.7 131.9 5.73 43.23 31.25 103.87 79.55 115.5q2.17.52 3.84 1.86 17.32 13.87 35.73 20.96 76.59 29.49 153.57-2.02 16.43-6.73 33.34-20.16c1.74-1.38 7.38-1.8 9.83-2.63 21.6-7.38 39.38-25.6 50.97-44.69q19.35-31.89 23.85-69.04c6.07-50.17-1.23-104.17-31.8-145.98q-14.26-19.52-35.41-30.89c-4.31-2.32-9.25-3.47-14.02-4.82q-2.23-.62-4.05-2.15-22.83-19.12-52.99-28.4-66.92-20.59-130.57 5.09" vector-effect="non-scaling-stroke"/><path stroke="#8a9caa" d="m294.24 178.22 5.12-9.43q.23-.43-.21-.62-40.3-17.55-79.51-1.58c-23.54 9.59-42.11 28.69-51.66 52.15q-14.48 35.58 2.33 69.94c1.95 3.99 4.96 8.26 7.58 12.39q.31.48.02.97l-32.32 56.04a.25.25 0 0 0 .29.36q4.02-1.29 8.04-2.87 28.42-11.21 56.07-23.47a1.72 1.71-41.6 0 1 1.57.09q5.26 3.13 11.21 5.17 36.04 12.32 70.44-.75c49.72-18.9 72.38-72.12 51.31-121.21q-.19-.44 0-.89 11.94-28.59 25.82-56.28a.54.54 0 0 0-.65-.76q-34.36 10.86-69.39 20.46-2.25.61-5.56 1.04a.51.5-79.1 0 1-.5-.75" vector-effect="non-scaling-stroke"/><path stroke="#8a9caa" d="M219.907 244.993a10.53 10.29 94.1 0 0 11.017-9.767 10.53 10.29 94.1 0 0-9.511-11.24 10.53 10.29 94.1 0 0-11.017 9.768 10.53 10.29 94.1 0 0 9.511 11.24M287.803 243.584a10.56 10.27 118.8 0 0 14.087-4.306 10.56 10.27 118.8 0 0-3.913-14.202 10.56 10.27 118.8 0 0-14.087 4.306 10.56 10.27 118.8 0 0 3.913 14.202M292.91 273.22c-20.56 17.95-48.98 19.3-69.26.16" vector-effect="non-scaling-stroke"/><path stroke="#ffdde1" d="M223.65 273.38q3.81-5.21 1-11.06c-6.84-14.24-32.44-10.98-30.07 6.68.9 6.74 5.34 12.2 12.13 13.51q7.44 1.43 13.55-4.51" vector-effect="non-scaling-stroke"/><path stroke="#8a9caa" d="M220.26 278q1.81 3.21 4.26 5.24c19.66 16.33 47.96 14.55 67.83-.87q1.57-1.22 3.44-4.31" vector-effect="non-scaling-stroke"/><path stroke="#ffdde1" d="M295.79 278.06q3.73 3.23 7.24 3.84 14.77 2.58 18.73-9.99 1.04-3.29.48-6.32c-3.96-21.35-40.22-12.95-29.33 7.63" vector-effect="non-scaling-stroke"/><path stroke="#8a7a8b" d="m295.79 278.06-2.88-4.84M223.65 273.38l-3.39 4.62" vector-effect="non-scaling-stroke"/><path stroke="#678d70" d="m257.43 512-.25-15.21q0-.55-.55-.62l-.74-.1" vector-effect="non-scaling-stroke"/></g><path fill="#e2a10f" d="M0 0h257.62l-.5 13.52c-11.28.59-23.23.91-33.79 2.58-66.67 10.55-125.04 48.94-164 103.57-22.35 31.36-37.25 68.98-41.83 106.31q-2.18 17.72-1.3 44.79l-1.24-4.75a.92.92 0 0 0-1.81.21l-.23 14.5a1.32 1.31-65.5 0 0 .32.86q1.1 1.27.87 3.67-.42 4.49.39 11.07.27 2.16 1.6 5.32 1.43 3.37 2.04 7.04.08.49.4.87 1.14 1.34 1.29 3.08c.23 2.68 1.79 4.69 2.22 7.39q1.06 6.53 3.75 12.56 1.21 2.7 1.7 5.53 1.21 6.98 4.03 13.54c.39.92.42 2.26 1.45 3.29q.34.34.51.8 1.71 4.94 3.52 9.83 1.41 3.78 4.08 8.16 4.28 7.03 7.63 14.55 1.75 3.91 4.05 7.23 4.55 6.55 8.54 13.47c.57.98 1.46 1.77 2.16 2.75q4.15 5.84 8.64 11.41.44.55 1.43 1.2c1.22.81 2.32 2.7 2.95 3.37q15.03 15.79 32.29 29.11l2.78 1.93q1.64 1.14 4.57 3.48 13.94 11.12 33.77 21.59 11.45 6.04 20.32 9.56 2.84 1.12 6.85 2.93 3.38 1.54 6.92 2.75.29.1.51.04.28-.08.44-.29.24-.3.61-.21l19.42 4.6a.1.1 0 0 1 .02.19q-.2.07-.42.18a.25.25 0 0 0 .1.48q5.12.1 10.01 1.59.48.14.97 0 .28-.08.61-.01 4.92 1 9.98 1.35l2.84-.07q2.41-.06 5.28 1.17 3.09 1.33 8.8 1.3.42 0 .05.21-.32.19-.66.1-.31-.08-.62-.04-1.12.14-2 .66-.56.33.02.62 1.35.67 2.67.69a.02.01 49.7 0 0 0-.03q-1.01-.21-1.5.4H0V0Z"/><path fill="#00a6fa" d="M257.62 0H512v512H327.21l1.18-1.31q.3-.32.72-.45c4.25-1.27 7.89-3.45 12.31-4.42q2.77-.61 5.36-1.76 3.68-1.63 3.78-1.67 5.88-2.4 11.49-5.34.09-.05 3.06-1.11 1.86-.66 2.76-2.49.22-.46.67-.68 10.76-5.39 21.22-13.26 7.92-5.96 19.49-13.77 5.21-3.52 19.07-16.95.05-.05.4-.5.27-.36.82-.43.44-.05.76-.36 6.26-5.98 11.86-12.6.2-.24.46-.29.39-.07.6-.41 1.08-1.71 3.41-3.59c1.13-.91 1.71-2.85 2.69-4q4.26-4.98 7.92-10.42.06-.08-.03-.12l-.22-.11q-.01 0 0-.01 5-6.39 6.39-8.71 8.71-14.54 10.99-19.75 5.3-12.11 10.52-24.24.83-1.92 1.78-7.07.45-2.43 1.78-5.09 1.87-3.73 2.9-7.81a.17.17 0 0 1 .15-.13l.36-.01q.49-.02.55-.5.85-6.56.87-13.18 0-.07-.12-1.43-.16-1.76.9-4.72a.34.34 0 0 0-.32-.45l-.43-.01q-.39 0-.35-.38.14-1.26 1.28-1.44a.62.6 72.3 0 1 .64.34l.29.56a.25.25 0 0 0 .43.03q.76-1.14-.14-2.29-.33-.43-.1-.92 1.24-2.64.94-5.69-.05-.51.27-.92.45-.58.38-1.39-.46-5.1 1.27-9.78.97-2.61 1.05-4.62.5-11.18 1.48-22.32.1-1.19.38-2.37.3-1.29.27-2.35-.18-6.46.24-12.91.02-.23-.21-.3-.14-.04-.24-.16-.12-.14-.09-.41.24-3.11-.27-6.17-.1-.59-.56-.96-1.12-.92-.48-2.56a.53.5 46.8 0 0 0-.39l-.48-1.18q-.15-.37-.22.02l-.26 1.66q-.76-23.33-5.84-43.7C477.69 140.89 437 87.09 384.41 52.35q-56.89-37.59-127.29-38.83l.5-13.52Z"/><path fill="#fff" d="M257.12 13.52q70.4 1.24 127.29 38.83c52.59 34.74 93.28 88.54 108.58 149.9q5.08 20.37 5.84 43.7 1.93 36.11-6.29 67.56-11.3 43.24-39.87 81.15-48.51 64.38-125.21 89.97-35.2 11.75-71.57 11.44-88.75-1.38-156.31-60.69C51.54 393.22 19.6 334.93 16.2 270.77q-.88-27.07 1.3-44.79c4.58-37.33 19.48-74.95 41.83-106.31 38.96-54.63 97.33-93.02 164-103.57 10.56-1.67 22.51-1.99 33.79-2.58Zm-72.94 66.6Q162.41 88.9 144.53 104c-3.04 2.57-7.32 2.67-10.62 3.99-21.57 8.64-38.83 27.62-49.87 47.6-22.06 39.89-27.72 86.56-21.7 131.9 5.73 43.23 31.25 103.87 79.55 115.5q2.17.52 3.84 1.86 17.32 13.87 35.73 20.96 76.59 29.49 153.57-2.02 16.43-6.73 33.34-20.16c1.74-1.38 7.38-1.8 9.83-2.63 21.6-7.38 39.38-25.6 50.97-44.69q19.35-31.89 23.85-69.04c6.07-50.17-1.23-104.17-31.8-145.98q-14.26-19.52-35.41-30.89c-4.31-2.32-9.25-3.47-14.02-4.82q-2.23-.62-4.05-2.15-22.83-19.12-52.99-28.4-66.92-20.59-130.57 5.09Z"/><path fill="#143954" d="M184.18 80.12q63.65-25.68 130.57-5.09 30.16 9.28 52.99 28.4 1.82 1.53 4.05 2.15c4.77 1.35 9.71 2.5 14.02 4.82q21.15 11.37 35.41 30.89c30.57 41.81 37.87 95.81 31.8 145.98q-4.5 37.15-23.85 69.04C417.58 375.4 399.8 393.62 378.2 401c-2.45.83-8.09 1.25-9.83 2.63q-16.91 13.43-33.34 20.16-76.98 31.51-153.57 2.02-18.41-7.09-35.73-20.96-1.67-1.34-3.84-1.86c-48.3-11.63-73.82-72.27-79.55-115.5-6.02-45.34-.36-92.01 21.7-131.9 11.04-19.98 28.3-38.96 49.87-47.6 3.3-1.32 7.58-1.42 10.62-3.99q17.88-15.1 39.65-23.88Zm110.06 98.1 5.12-9.43q.23-.43-.21-.62-40.3-17.55-79.51-1.58c-23.54 9.59-42.11 28.69-51.66 52.15q-14.48 35.58 2.33 69.94c1.95 3.99 4.96 8.26 7.58 12.39q.31.48.02.97l-32.32 56.04a.25.25 0 0 0 .29.36q4.02-1.29 8.04-2.87 28.42-11.21 56.07-23.47a1.72 1.71-41.6 0 1 1.57.09q5.26 3.13 11.21 5.17 36.04 12.32 70.44-.75c49.72-18.9 72.38-72.12 51.31-121.21q-.19-.44 0-.89 11.94-28.59 25.82-56.28a.54.54 0 0 0-.65-.76q-34.36 10.86-69.39 20.46-2.25.61-5.56 1.04a.51.5-79.1 0 1-.5-.75Z"/><path fill="#fff" d="M294.74 178.97q3.31-.43 5.56-1.04 35.03-9.6 69.39-20.46a.54.54 0 0 1 .65.76q-13.88 27.69-25.82 56.28-.19.45 0 .89c21.07 49.09-1.59 102.31-51.31 121.21q-34.4 13.07-70.44.75-5.95-2.04-11.21-5.17a1.72 1.71-41.6 0 0-1.57-.09q-27.65 12.26-56.07 23.47-4.02 1.58-8.04 2.87a.25.25 0 0 1-.29-.36l32.32-56.04q.29-.49-.02-.97c-2.62-4.13-5.63-8.4-7.58-12.39q-16.81-34.36-2.33-69.94c9.55-23.46 28.12-42.56 51.66-52.15q39.21-15.97 79.51 1.58.44.19.21.62l-5.12 9.43a.51.5-79.1 0 0 .5.75Zm-74.833 66.023a10.53 10.29 94.1 0 0 11.017-9.767 10.53 10.29 94.1 0 0-9.511-11.24 10.53 10.29 94.1 0 0-11.017 9.768 10.53 10.29 94.1 0 0 9.511 11.24Zm67.896-1.41a10.56 10.27 118.8 0 0 14.087-4.305 10.56 10.27 118.8 0 0-3.913-14.202 10.56 10.27 118.8 0 0-14.087 4.306 10.56 10.27 118.8 0 0 3.913 14.202Zm5.107 29.637c-20.56 17.95-48.98 19.3-69.26.16q3.81-5.21 1-11.06c-6.84-14.24-32.44-10.98-30.07 6.68.9 6.74 5.34 12.2 12.13 13.51q7.44 1.43 13.55-4.51 1.81 3.21 4.26 5.24c19.66 16.33 47.96 14.55 67.83-.87q1.57-1.22 3.44-4.31 3.73 3.23 7.24 3.84 14.77 2.58 18.73-9.99 1.04-3.29.48-6.32c-3.96-21.35-40.22-12.95-29.33 7.63Z"/><ellipse fill="#143954" rx="10.53" ry="10.29" transform="rotate(94.1 1.188 219.95)"/><ellipse fill="#143954" rx="10.56" ry="10.27" transform="rotate(118.8 77.154 203.772)"/><path fill="#0290d9" d="M327.21 512h-69.78l-.25-15.21q0-.55-.55-.62l-.74-.1q36.37.31 71.57-11.44 76.7-25.59 125.21-89.97 28.57-37.91 39.87-81.15 8.22-31.45 6.29-67.56l.26-1.66q.07-.39.22-.02l.48 1.18a.53.5 46.8 0 1 0 .39q-.64 1.64.48 2.56.46.37.56.96.51 3.06.27 6.17-.03.27.09.41.1.12.24.16.23.07.21.3-.42 6.45-.24 12.91.03 1.06-.27 2.35-.28 1.18-.38 2.37-.98 11.14-1.48 22.32-.08 2.01-1.05 4.62-1.73 4.68-1.27 9.78.07.81-.38 1.39-.32.41-.27.92.3 3.05-.94 5.69-.23.49.1.92.9 1.15.14 2.29a.25.25 0 0 1-.43-.03l-.29-.56a.62.6 72.3 0 0-.64-.34q-1.14.18-1.28 1.44-.04.38.35.38l.43.01a.34.34 0 0 1 .32.45q-1.06 2.96-.9 4.72.12 1.36.12 1.43-.02 6.62-.87 13.18-.06.48-.55.5l-.36.01a.17.17 0 0 0-.15.13q-1.03 4.08-2.9 7.81-1.33 2.66-1.78 5.09-.95 5.15-1.78 7.07-5.22 12.13-10.52 24.24-2.28 5.21-10.99 19.75-1.39 2.32-6.39 8.71-.01.01 0 .01l.22.11q.09.04.03.12-3.66 5.44-7.92 10.42c-.98 1.15-1.56 3.09-2.69 4q-2.33 1.88-3.41 3.59-.21.34-.6.41-.26.05-.46.29-5.6 6.62-11.86 12.6-.32.31-.76.36-.55.07-.82.43-.35.45-.4.5-13.86 13.43-19.07 16.95-11.57 7.81-19.49 13.77-10.46 7.87-21.22 13.26-.45.22-.67.68-.9 1.83-2.76 2.49-2.97 1.06-3.06 1.11-5.61 2.94-11.49 5.34-.1.04-3.78 1.67-2.59 1.15-5.36 1.76c-4.42.97-8.06 3.15-12.31 4.42q-.42.13-.72.45l-1.18 1.31Z"/><path fill="#ffbbc2" d="m295.79 278.06-2.88-4.84c-10.89-20.58 25.37-28.98 29.33-7.63q.56 3.03-.48 6.32-3.96 12.57-18.73 9.99-3.51-.61-7.24-3.84ZM223.65 273.38l-3.39 4.62q-6.11 5.94-13.55 4.51c-6.79-1.31-11.23-6.77-12.13-13.51-2.37-17.66 23.23-20.92 30.07-6.68q2.81 5.85-1 11.06Z"/><path fill="#cb8a07" d="M16.2 270.77c3.4 64.16 35.34 122.45 83.38 164.61q67.56 59.31 156.31 60.69l.74.1q.55.07.55.62l.25 15.21h-16.31q.49-.61 1.5-.4a.02.01 49.7 0 1 0 .03q-1.32-.02-2.67-.69-.58-.29-.02-.62.88-.52 2-.66.31-.04.62.04.34.09.66-.1.37-.21-.05-.21-5.71.03-8.8-1.3-2.87-1.23-5.28-1.17l-2.84.07q-5.06-.35-9.98-1.35-.33-.07-.61.01-.49.14-.97 0-4.89-1.49-10.01-1.59a.25.25 0 0 1-.1-.48q.22-.11.42-.18a.1.1 0 0 0-.02-.19l-19.42-4.6q-.37-.09-.61.21-.16.21-.44.29-.22.06-.51-.04-3.54-1.21-6.92-2.75-4.01-1.81-6.85-2.93-8.87-3.52-20.32-9.56-19.83-10.47-33.77-21.59-2.93-2.34-4.57-3.48l-2.78-1.93q-17.26-13.32-32.29-29.11c-.63-.67-1.73-2.56-2.95-3.37q-.99-.65-1.43-1.2-4.49-5.57-8.64-11.41c-.7-.98-1.59-1.77-2.16-2.75q-3.99-6.92-8.54-13.47-2.3-3.32-4.05-7.23-3.35-7.52-7.63-14.55-2.67-4.38-4.08-8.16-1.81-4.89-3.52-9.83-.17-.46-.51-.8c-1.03-1.03-1.06-2.37-1.45-3.29q-2.82-6.56-4.03-13.54-.49-2.83-1.7-5.53-2.69-6.03-3.75-12.56c-.43-2.7-1.99-4.71-2.22-7.39q-.15-1.74-1.29-3.08-.32-.38-.4-.87-.61-3.67-2.04-7.04-1.33-3.16-1.6-5.32-.81-6.58-.39-11.07.23-2.4-.87-3.67a1.32 1.31-65.5 0 1-.32-.86l.23-14.5a.92.92 0 0 1 1.81-.21l1.24 4.75Z"/><path fill="#143954" d="M223.65 273.38c20.28 19.14 48.7 17.79 69.26-.16l2.88 4.84q-1.87 3.09-3.44 4.31c-19.87 15.42-48.17 17.2-67.83.87q-2.45-2.03-4.26-5.24l3.39-4.62Z"/></svg>